<?xml version="1.0" encoding="iso-8859-1"?>
<!-- Generator: Adobe Illustrator 18.0.0, SVG Export Plug-In . SVG Version: 6.00 Build 0)  -->
<!DOCTYPE svg PUBLIC "-//W3C//DTD SVG 1.1//EN" "http://www.w3.org/Graphics/SVG/1.1/DTD/svg11.dtd">
<svg version="1.1" id="Capa_1" xmlns="http://www.w3.org/2000/svg" xmlns:xlink="http://www.w3.org/1999/xlink" x="0px" y="0px"
	 viewBox="0 0 297 297" style="enable-background:new 0 0 297 297;" xml:space="preserve">
<path d="M285.357,275.556H127.994l165.955-165.957c3.529-3.529,4.058-9.066,1.263-13.199L233.516,5.193
	c-1.741-2.574-4.541-4.236-7.635-4.533c-3.089-0.293-6.158,0.806-8.357,3.004L37.418,183.774c-3.529,3.528-4.059,9.065-1.263,13.199
	l53.158,78.583H10.414C4.663,275.556,0,280.22,0,285.971s4.663,10.415,10.414,10.415h274.943c5.751,0,10.415-4.664,10.415-10.415
	S291.108,275.556,285.357,275.556z M223.332,27.314l49.81,73.635l-75.054,75.056l-49.81-73.636L223.332,27.314z M133.278,117.37
	l49.81,73.634l-75.053,75.055l-49.81-73.635L133.278,117.37z"/>
<g>
</g>
<g>
</g>
<g>
</g>
<g>
</g>
<g>
</g>
<g>
</g>
<g>
</g>
<g>
</g>
<g>
</g>
<g>
</g>
<g>
</g>
<g>
</g>
<g>
</g>
<g>
</g>
<g>
</g>
</svg>
