<?xml version="1.0" encoding="iso-8859-1"?>
<!-- Generator: Adobe Illustrator 19.0.0, SVG Export Plug-In . SVG Version: 6.00 Build 0)  -->
<svg version="1.1" id="Capa_1" xmlns="http://www.w3.org/2000/svg" xmlns:xlink="http://www.w3.org/1999/xlink" x="0px" y="0px"
	 viewBox="0 0 490 490" style="enable-background:new 0 0 490 490;" xml:space="preserve">
<path d="M486.945,97.403L392.596,3.054c-4.072-4.073-10.67-4.073-14.742,0L39.768,341.141c-1.077,1.077-1.861,2.334-2.369,3.67
	c-0.001-0.001-0.003-0.002-0.005-0.002L8.461,417.434c-1.547,3.869-0.631,8.287,2.311,11.229l17.909,17.909L3.054,472.203
	c-4.072,4.072-4.072,10.675,0,14.741c4.073,4.074,10.671,4.074,14.743,0l25.626-25.63l17.909,17.909
	c1.995,1.995,6.033,4.282,11.23,2.316l72.714-28.963c-0.002-0.001-0.003-0.003-0.004-0.005c1.306-0.508,2.533-1.284,3.588-2.339
	l338.086-338.087C491.018,108.073,491.018,101.475,486.945,97.403z M433.382,73.324L325.635,181.067l-16.707-16.707L416.675,56.617
	L433.382,73.324z M385.225,25.168l16.707,16.707L294.185,149.617l-16.705-16.705L385.225,25.168z M71.218,459.624l-40.847-40.851
	l20.596-51.69l71.95,71.951L71.218,459.624z M141.488,428.119l-79.607-79.607l200.857-200.857l79.606,79.607L141.488,428.119z
	 M357.087,212.519l-16.709-16.709L448.124,88.067l16.707,16.707L357.087,212.519z"/>
<g>
</g>
<g>
</g>
<g>
</g>
<g>
</g>
<g>
</g>
<g>
</g>
<g>
</g>
<g>
</g>
<g>
</g>
<g>
</g>
<g>
</g>
<g>
</g>
<g>
</g>
<g>
</g>
<g>
</g>
</svg>
